<svg xmlns="http://www.w3.org/2000/svg" width="243" height="233" viewBox="0 0 243 233">
  <rect x="205.25" y="110.25" width="20" height="45.5" rx="10" ry="10" fill="#36393d" transform="rotate(90,215.25,133)"/>
  <ellipse cx="105" cy="127" rx="95" ry="95" fill="none" stroke="#36393d" stroke-width="20"/>
  <rect x="225" y="2" width="10" height="140" rx="5" ry="5" fill="#36393d"/>
  <rect x="220" y="102" width="20" height="40" rx="10" ry="10" fill="#36393d"/>
  <ellipse cx="85" cy="142" rx="45" ry="45" fill="none" stroke="#36393d" stroke-width="20"/>
  <rect x="133.82" y="55.42" width="24.3" height="61.17" rx="12.15" ry="12.15" fill="none" stroke="#36393d" stroke-width="12" transform="rotate(-45,145.97,86)"/>
  <rect x="137.37" y="64.41" width="11.11" height="14.2" rx="5.55" ry="5.55" fill="#36393d" transform="rotate(45,142.92,71.51)"/>
  <rect x="142.41" y="91.05" width="11.11" height="14.2" rx="5.55" ry="5.55" fill="#36393d" transform="rotate(45,147.97,98.15)"/>
  <ellipse cx="85" cy="65.51" rx="11.1" ry="11.1" fill="#36393d"/>
</svg>
